<?xml version="1.0" encoding="utf-8"?>
<!-- Generator: Adobe Illustrator 21.0.0, SVG Export Plug-In . SVG Version: 6.00 Build 0)  -->
<svg version="1.1" id="svg-arrow-down" xmlns="http://www.w3.org/2000/svg" xmlns:xlink="http://www.w3.org/1999/xlink" x="0px" y="0px"
	 viewBox="0 0 612 792" xml:space="preserve">
<g>
	<g>
		<defs>
			<rect id="svg-arrow-down@SVGID_1_" x="-2" y="233" width="614.9" height="326.9"/>
		</defs>
		<path clip-path="url(#svg-arrow-down@SVGID_1_)" d="M293.1,528.2l290.1-290.1c6.8-6.8,17.1-6.8,23.9,0c6.8,6.8,6.8,17.1,0,23.9L317,553.8
			c-6.8,6.8-17.1,6.8-23.9,0C286.3,547,286.3,535,293.1,528.2L293.1,528.2z M293.1,528.2"/>
		<path clip-path="url(#svg-arrow-down@SVGID_1_)" d="M26.9,239.8L317,529.9c6.8,6.8,6.8,17.1,0,23.9c-6.8,6.8-17.1,6.8-23.9,0L3,263.7c-6.8-6.8-6.8-17.1,0-23.9
			C8.1,232.9,20.1,232.9,26.9,239.8L26.9,239.8z M26.9,239.8"/>
	</g>
</g>
</svg>
