<?xml version="1.0" encoding="utf-8"?>
<!-- Generator: Adobe Illustrator 21.0.0, SVG Export Plug-In . SVG Version: 6.00 Build 0)  -->
<svg version="1.1" id="svg-home" xmlns="http://www.w3.org/2000/svg" xmlns:xlink="http://www.w3.org/1999/xlink" x="0px" y="0px"
	 viewBox="0 0 612 792" xml:space="preserve">
<g>
	<g>
		<path d="M595.8,317.4c-0.3-0.4-0.7-0.8-1-1.1L382.9,101.8c-20.8-25.6-48.7-39.7-78.6-39.7h-0.1c-30,0-57.9,14.2-78.7,39.9
			l-212,214c-0.4,0.4-0.7,0.8-1,1.1C-17.1,354-12,380.5-6.3,393.1c5.7,12.6,22.1,33.6,68.2,33.6h23.9V706c0,8.3,6.4,15,14.4,15
			h406.5c8,0,14.4-6.7,14.4-15V429.2c0-8.3-6.4-15-14.4-15c-8,0-14.4,6.7-14.4,15v261.9h-84.2c0.1-0.7,0.4-1.3,0.4-2.1V549.1
			c0-58-33.2-98.5-80.9-98.5h-47c-44.6,0-80.8,37.6-80.8,83.9V689c0,0.7,0.3,1.4,0.4,2.1h-85.6V411.7c0-8.3-6.4-15-14.4-15H61.9
			c-21.8,0-37.5-6.1-42.2-16.4c-4.6-10.1,0.8-26.4,14.4-43.5l211.9-214c0.4-0.4,0.7-0.8,1-1.2c15.4-19.1,35.6-29.7,57.2-29.7h0.1
			c21.4,0,41.7,10.5,57,29.6c0.3,0.4,0.7,0.8,1,1.1l211.8,214.4c13.6,17.1,19,33.3,14.5,43.4c-4.6,10.2-20.3,16.3-42.1,16.3
			c-8,0-14.4,6.7-14.4,15c0,8.3,6.4,15,14.4,15c46.2,0,62.6-21,68.2-33.5C620.3,380.7,625.4,354.2,595.8,317.4L595.8,317.4z
			 M228.6,689V534.5c0-29.8,23.3-54,52-54h47c31.1,0,52.1,27.5,52.1,68.5V689c0,0.7,0.3,1.4,0.4,2.1H228.2
			C228.3,690.4,228.6,689.7,228.6,689L228.6,689z M228.6,689"/>
	</g>
</g>
</svg>
