<?xml version="1.0" encoding="utf-8"?>
<!-- Generator: Adobe Illustrator 21.0.0, SVG Export Plug-In . SVG Version: 6.00 Build 0)  -->
<svg version="1.1" id="svg-list" xmlns="http://www.w3.org/2000/svg" xmlns:xlink="http://www.w3.org/1999/xlink" x="0px" y="0px"
	 viewBox="0 0 612 792" xml:space="preserve">
<path class="st0" d="M517.2,558.4c0-7.4-5.1-12.6-12.5-12.6h-37.1v-55.1c0-7.4-5.1-12.5-12.5-12.5s-12.5,5.1-12.5,12.5v79.9h64.6
	C512.1,570.9,517.2,565.8,517.2,558.4L517.2,558.4z"/>
<path class="st0" d="M145.9,663h188.6c7.2,0,12.7-8.8,12.7-16.3c0-7.4-5.2-16.5-12.7-16.5H153.9c-16.8,0-31.5-7.1-31.5-24.5V246.3
	c0-17.4,14.1-24.5,30.9-24.5H416c16.8,0,24,7.4,24,24.8v134.9c0,7.4,8.8,12,16,12s16-4.6,16-12V246.3c0-32.5-24.3-57.3-55.5-57.3
	H145.9c-31.5,0-55.5,25.1-55.5,57.3v359.4C90.4,638.2,114.5,663,145.9,663L145.9,663z"/>
<path class="st0" d="M134.3,663"/>
<path class="st0" d="M455.1,663c64.6,0,116.5-52.5,116.5-117.2c0-64.8-52.1-117.2-116.5-117.2c-64.3,0-116.5,52.5-116.5,117.2
	C338.7,610.6,390.5,663,455.1,663L455.1,663z M455.1,453.4c49.6,0,91.8,39.9,91.8,92.4c0,49.9-39.7,92.4-91.8,92.4
	c-49.6,0-91.8-39.9-91.8-92.4C363.3,495.9,405.6,453.4,455.1,453.4L455.1,453.4z"/>
<path class="st0" d="M167.7,320.5h227c7.2,0,12.1-5.1,12.1-12.6c0-7.4-5-12.5-12.1-12.5h-227c-7.2,0-12.2,5.1-12.2,12.5
	C155.6,315.3,160.3,320.5,167.7,320.5L167.7,320.5z"/>
<path class="st0" d="M285.2,467.7H166.6c-6.5,0-11.1,5.1-11.1,12.5s4.5,12.6,11.1,12.6h118.5c6.5,0,11-5.1,11-12.6
	C296.2,472.8,291.9,467.7,285.2,467.7L285.2,467.7z"/>
<path class="st0" d="M348.2,382.6H165.3c-5.8,0-9.8,5.1-9.8,12.6c0,7.4,4,12.6,9.8,12.6h182.9c5.8,0,9.8-5.1,9.8-12.6
	C358.1,387.8,354.3,382.6,348.2,382.6L348.2,382.6z"/>
<path class="st0" d="M394.7,370.9"/>
</svg>
