<?xml version="1.0" encoding="utf-8"?>
<!-- Generator: Adobe Illustrator 21.0.0, SVG Export Plug-In . SVG Version: 6.00 Build 0)  -->
<svg version="1.1" id="svg-lunch" xmlns="http://www.w3.org/2000/svg" xmlns:xlink="http://www.w3.org/1999/xlink" x="0px" y="0px"
	 viewBox="0 0 612 792" xml:space="preserve">
<g>
	<g fill="">
		<defs>
			<rect id="svg-lunch@SVGID_1_" x="-21" y="99" width="652.8" height="595.9"/>
		</defs>
		<path clip-path="url(#svg-lunch@SVGID_1_)" d="M337.3,136.1c142.2,0,257.3,56.7,257.3,127.2c0,27.2-17.3,52-46.8,72.8l0.6,309.9c0,6.9-5.8,12.7-5.8,12.7
			H137.3c-6.4,0-12.1-5.8-12.1-12.7V334.4c-28.3-20.2-44.5-45.1-44.5-71.7C80.6,192.7,195.7,136.1,337.3,136.1 M337.3,99.7
			c-74,0-144.5,14.5-197.7,41c-61.9,30.6-95.4,74-95.4,122c0,23.7,8.1,56.7,44.5,89l0.6,293.7c0,26.6,21.4,48.6,48.6,48.6h398.9
			c26.6,0,48.6-22,48.6-48.6l-0.6-291.9c38.2-32.4,46.8-66.5,46.8-90.2c0-48.6-34.1-91.9-95.4-122.6
			C481.8,114.7,411.9,99.7,337.3,99.7L337.3,99.7z M247.7,461.6h-30.1c-9.8,0-17.9-8.1-17.9-17.9c0-9.8,8.1-17.9,17.9-17.9h30.1
			c9.8,0,17.9,8.1,17.9,17.9C266.2,452.9,257.5,461.6,247.7,461.6L247.7,461.6z M258.7,250h-30.1c-9.8,0-17.9-8.1-17.9-17.9
			c0-9.8,8.1-17.9,17.9-17.9h30.1c9.8,0,17.9,8.1,17.9,17.9C276.6,241.9,268.5,250,258.7,250L258.7,250z M477.2,421.7h-30.1
			c-9.8,0-17.9-8.1-17.9-17.9c0-9.8,8.1-17.9,17.9-17.9h30.1c9.8,0,17.9,8.1,17.9,17.9C495.7,413.6,487.1,421.7,477.2,421.7
			L477.2,421.7z M332.7,369.6h-30.1c-9.8,0-17.9-8.1-17.9-17.9c0-9.8,8.1-17.9,17.9-17.9h30.1c9.8,0,17.9,8.1,17.9,17.9
			C350.6,361.5,342.5,369.6,332.7,369.6L332.7,369.6z M296.8,602.6h-30.1c-9.8,0-17.9-8.1-17.9-17.9s8.1-17.9,17.9-17.9h30.1
			c9.8,0,17.9,8.1,17.9,17.9C315.3,594.5,306.7,602.6,296.8,602.6L296.8,602.6z M452.4,285.8h-30.1c-9.8,0-17.9-8.1-17.9-17.9
			c0-9.8,8.1-17.9,17.9-17.9h30.1c9.8,0,17.9,8.1,17.9,17.9C470.3,277.7,462.2,285.8,452.4,285.8L452.4,285.8z M452.4,547.1h-30.1
			c-9.8,0-17.9-8.1-17.9-17.9s8.1-17.9,17.9-17.9h30.1c9.8,0,17.9,8.1,17.9,17.9S462.2,547.1,452.4,547.1L452.4,547.1z M137.9,694
			c-22.5,0-41-15.6-46.8-36.4H72c-6.4,0-12.1-5.8-12.1-12.7l-0.6-310.4c-28.3-20.2-44.5-45.1-44.5-71.7c0-34.7,28.3-66.5,74.6-89
			c13.9-12.1,30.6-23.1,50.3-33c45.7-22.5,103.5-36.4,165.3-39.9c-11-0.6-22-1.2-33-1.2c-74,0-144.5,14.5-197.7,41
			c-61.9,30.6-95.4,74-95.4,122c0,23.7,8.1,56.7,44.5,89L24,645.4C24,672,45.4,694,72.5,694h112.2H137.9z M137.9,694"/>
	</g>
</g>
</svg>
