<?xml version="1.0" encoding="utf-8"?>
<!-- Generator: Adobe Illustrator 21.0.0, SVG Export Plug-In . SVG Version: 6.00 Build 0)  -->
<svg version="1.1" id="svg-meat-dish" xmlns="http://www.w3.org/2000/svg" xmlns:xlink="http://www.w3.org/1999/xlink" x="0px" y="0px"
	 viewBox="0 0 612 792" xml:space="preserve">
<g fill="">
	<path d="M662.2,212.9c-5.1-13.5-18.6-28.2-53.4-24.2c-6.4-34.5-24.5-43-38.9-44c-4.5-0.3-9.1,0.4-13.3,2
		c-18.1,6.9-30.4,21.4-32.8,39.1c-2,14.6,2.9,29.1,13,39.4l-43,50.9c-15.3-4.7-33-1.4-46.8,9.9l-3,2.4c-6.2,5.1-13.1,9.4-20.6,12.6
		L359.4,329c-0.4-0.2-0.8-0.5-1.2-0.6l3.7-18c1.1-5.8,3.1-11.5,5.8-16.8l1.4-2.6c6.6-13,6.3-27.8,0.2-39.4l31.4-37.8
		c10.6,5.1,23,5.3,33.9,0.2c13.5-6.4,22.1-19.8,23-35.8c0.2-3.9-0.4-7.8-1.8-11.5c-4.3-11-15.2-23.1-42.2-20.6
		c-5.8-26.6-20.6-33.2-32.5-33.9c-3.9-0.3-7.9,0.3-11.5,1.8c-15,5.8-25.1,18.1-27,32.9c-1.5,11.4,2,22.6,9.4,31l-30.2,36.1
		c-12.7-3.3-27.2-0.2-38.3,9l-2.3,1.9c-4.6,3.8-9.6,7-15.1,9.4l-53.8,24.1c-8.1,3.6-15.3,8-21.4,13c-17.5,14.4-26.1,24.1-35.8,40.9
		C27.3,337-54,425.9-54,548.8c0,49.9,8.6,79.8,29,99.8c27.4,27.1,71.9,31.6,145.7,31.6c16.7,0,35-0.2,54.8-0.6
		c23.9-0.3,50.3-0.6,79.4-0.6c15.4,0,30.2,0.1,44.2,0.1c130.8,0.3,202.9,0.6,239-35.5c17.4-17.4,25.6-42.3,25.6-78.3
		c0-32-17.8-62.5-34.9-91.9c-1.4-2.3-2.6-4.6-4-6.9l14.7-72.1c1.7-7.9,4.3-15.6,8-22.7l1.7-3.3c8.2-16,7.6-34.3-0.4-48.2l44.7-52.9
		c13.1,7.4,29,8.2,42.9,1.8c16.2-7.4,26.6-23.4,27.8-42.8C664.5,221.7,663.8,217,662.2,212.9L662.2,212.9z M436.6,330.6
		c10.2-4.5,19.6-10.2,28.2-17.3l2.9-2.3c3.8-3.1,8.2-4.7,12.3-4.7c3,0,5.7,0.8,7.8,2.5l30.2,24.4c5.1,4.2,6,12.6,2.2,20.2l-1.8,3.4
		c-5,9.7-8.6,20.2-10.9,31L493,458.9c-2.1,3.2-3,7-2.5,10.8c-1.4,5-3.1,9.7-5.2,13.8c-19.8,39.8-59.2,65.4-97.8,65
		c-19.9-0.5-38.2-7-52.9-18.8c-13-10.6-22.6-24.9-27.8-41.5c-12.2-38.7,4.8-86.2,41.2-115.7c5.4-4.3,11.8-8.2,19.2-11.4L436.6,330.6
		z M388.6,172l-13.8-6.9c-0.7-0.3-1.4-0.8-2.2-1.3c-4.4-3.2-6.7-8.6-6-13.9c0.5-3.4,2.6-9.8,11.7-13.3c0.4-0.1,0.9-0.2,1.3-0.2
		c5.5,0.3,9.3,7.3,11.1,20.7c0.6,4.4,3,8.4,6.6,11c3.6,2.6,8.2,3.7,12.6,2.9c13.4-2.3,21.1-0.9,23.1,4.3c0.2,0.4,0.2,0.9,0.2,1.3
		c-0.6,9.8-6,13.7-9.1,15.2c-5,2.3-10.7,1.8-15.1-1.4c-0.6-0.5-1.3-1-1.8-1.6l-9.4-9.7l-45.5,54.6l-9.1-7.2L388.6,172z M211.3,296.5
		c3.9-3.2,8.6-6.1,14.1-8.5l54-24.1c8.2-3.7,15.8-8.4,22.6-14.1l2.2-1.9c3.8-3.1,8.6-3.8,11.2-1.8l23.8,18.9c2.6,2.2,3,7,0.8,11.4
		l-1.3,2.6c-4,7.9-7,16.4-8.6,25l-2.9,14.1c-31-8.6-63.4-13-96.7-13c-10.3,0-20.5,0.4-30.4,1.1C203.2,303.3,206.8,300.1,211.3,296.5
		L211.3,296.5z M531.1,565.3c0,26.8-5.1,44.3-16.1,55.3c-26.6,26.6-97.9,26.3-216,26c-14-0.1-28.8-0.1-44.2-0.1
		c-29.2,0-55.7,0.3-79.8,0.6C79.4,648.3,21.7,649-2.3,625.4c-13.4-13.2-19.3-36.8-19.3-76.6c0-126.2,101.3-211,252-211
		c31.5,0,62.1,4.2,91.2,12.7c0.1,0.6,0.2,1.1,0.3,1.7c-43.2,38.3-61.8,96.1-46.2,145.9c7.1,22.8,20.5,42.5,38.5,57
		c20.3,16.4,45.4,25.4,72.6,26h2.6c47.4,0,94.6-29.4,120.7-74.7C521.5,526.6,531.1,547,531.1,565.3L531.1,565.3z M639.8,224.6
		c-1,14.3-9,20.2-13.8,22.3c-7.4,3.4-16.2,2.6-22.8-2.3c-1-0.8-1.9-1.6-2.8-2.5l-9.4-9.8l-59.4,70.2L514.8,289l59-69.8l-13.8-7
		c-1.1-0.6-2.2-1.3-3.2-2c-6.6-4.9-10-13-8.9-21.1c0.7-5.2,3.9-14.6,17.3-19.7c1-0.4,2-0.5,3-0.5c3.4,0.2,13.6,0.9,17.3,29.6
		c0.6,4.8,3.1,9,7,11.9c3.8,2.9,8.6,4,13.4,3.2c28.5-4.9,32.2,4.7,33.4,7.8C639.7,222.5,639.8,223.5,639.8,224.6L639.8,224.6z
		 M639.8,224.6"/>
	<path d="M161.8,386.9C160.2,387.3,8.6,425,43.9,593c1.7,7.6,8.4,12.9,15.9,12.9c1.1,0,2.2-0.1,3.3-0.4c8.8-1.8,14.4-10.5,12.6-19.3
		C47,449.8,164.2,419.7,169.2,418.5c8.7-2.1,14.2-10.8,12.1-19.5C179.3,390.2,170.5,384.8,161.8,386.9L161.8,386.9z M161.8,386.9"/>
</g>
</svg>
