<?xml version="1.0" encoding="utf-8"?>
<!-- Generator: Adobe Illustrator 21.0.0, SVG Export Plug-In . SVG Version: 6.00 Build 0)  -->
<svg version="1.1" id="svg-nutr-salt" xmlns="http://www.w3.org/2000/svg" xmlns:xlink="http://www.w3.org/1999/xlink" x="0px" y="0px"
	 viewBox="0 0 612 792" xml:space="preserve">
	 <defs>
		<rect id="svg-nutr-salt@SVDID_1_" x="51" y="38" class="st0" width="510" height="717.8"/>
	 </defs>
	<g fill="" clip-path="url(#svg-nutr-salt@SVDID_1_)">
		<path d="M559.1,634.3l-59.1-433.1v-66.5c0-52.9-43-95.9-95.9-95.9H207c-52.9,0-95.9,43-95.9,95.9v66.5L52,634.3
			c-4.1,30.4,5.1,61.1,25.2,84.2c20.2,23.1,49.3,36.4,80,36.4h296.6c30.7,0,59.8-13.2,80-36.4C554,695.5,563.2,664.8,559.1,634.3
			L559.1,634.3z M140.1,134.8c0-36.9,29.9-66.8,66.8-66.8H404c36.9,0,66.8,29.9,66.8,66.8v53H140.1V134.8z M512,699.5
			c-14.7,16.8-35.8,26.4-58.1,26.4H157.2c-22.3,0-43.5-9.6-58.1-26.4c-14.7-16.8-21.3-39.1-18.3-61.1l57.4-421.6h334.4l57.5,421.6
			C533.3,660.4,526.6,682.7,512,699.5L512,699.5z M512,699.5"/>
		<path d="M210.6,249.9c-8-0.6-14.9,5.5-15.5,13.5l-25.9,372c-0.6,8,5.5,14.9,13.5,15.5h1c7.6,0,13.9-5.8,14.4-13.5l25.9-372
			C224.6,257.4,218.6,250.4,210.6,249.9L210.6,249.9z M415.9,263.4c-0.6-8-7.5-14-15.5-13.5c-8,0.6-14,7.5-13.5,15.5l25.9,372
			c0.5,7.7,6.9,13.5,14.4,13.5h1c8-0.6,14-7.5,13.5-15.5L415.9,263.4z M415.9,263.4"/>
	</g>
</svg>
