<?xml version="1.0" encoding="utf-8"?>
<!-- Generator: Adobe Illustrator 21.0.0, SVG Export Plug-In . SVG Version: 6.00 Build 0)  -->
<svg version="1.1" id="svg-nutr-calorie" xmlns="http://www.w3.org/2000/svg" xmlns:xlink="http://www.w3.org/1999/xlink" x="0px" y="0px"
	 viewBox="0 0 612 792" xml:space="preserve">
<path id="XMLID_121_" class="st0" d="M74.3,160.9v142.5c0,6.3-3.7,11.6-8.2,11.6c-4.4,0-8.1-5.3-8.1-11.6V151.8c-2.6-0.7-5.3-1-8-1
	c-3.5,0-7,0.6-10.2,1.6v151c0,6.3-3.7,11.6-8.2,11.6c-4.5,0-8.1-5.3-8.1-11.6V163.1c-11.4,12-18.8,31.5-18.8,53.6v77.8
	c0,27.9,11.8,51.5,28.5,61.3c-0.1,0.3-0.1,0.9-0.1,1.3L24.4,580c0,20.4,11.3,36.8,25.2,36.8c14,0,25.3-16.4,25.3-36.8l-8-222.8
	c0-0.4-0.1-1-0.1-1.3c16.7-9.8,28.5-33.4,28.5-61.3v-77.8C95.3,193.1,86.9,172.8,74.3,160.9z"/>
<path id="XMLID_120_" class="st0" d="M602.2,423.1l0.1,0.2l-1.1-273.4c-20.6-1.2-37.7,27.8-38.3,64.8l-7.6,119.2
	c-0.4,28.3,6.9,50.4,17.2,63.6l-6.2,182.6c0,20.2,9.2,36.8,20.5,36.8c11.3,0,20.5-16.6,20.5-36.8L602.2,423.1z"/>
<path id="XMLID_308_" class="st0" d="M321.3,184.2c-126.4,0-228.9,102.6-228.9,229.1c0,126.4,102.5,228.8,228.9,228.8
	c126.4,0,228.7-102.5,228.7-228.8C550.1,286.8,447.7,184.2,321.3,184.2z M321.3,587.3c-96.2,0-174.2-78.1-174.2-174
	c0-96.3,78.1-174.4,174.2-174.4c96,0,174.1,78.1,174.1,174.4C495.5,509.2,417.3,587.3,321.3,587.3z"/>
<g id="XMLID_300_">
	<polygon id="XMLID_109_" class="st0" points="241.4,457.7 224,420.3 210.9,435.9 210.9,457.7 185.4,457.7 185.4,367 210.9,367
		210.9,401.4 237.5,367 271.4,367 241.4,401.1 272.8,457.7 	"/>
	<path id="XMLID_107_" class="st0" d="M340.2,447.6c-2.8,3.8-6.2,6.7-10.5,8.6c-4.3,2-9.7,3.2-16.3,3.2c-6.3,0-11.6-0.7-15.8-1.9
		c-4.2-1.6-7.9-3.5-10.9-6.5c-3.1-2.9-5.4-6.5-7.2-10.4c-1.8-3.8-2.6-9.1-2.6-15.4c0-6.9,1-12.6,3.1-17c1.5-3.2,3.7-6.2,6.4-8.8
		c2.6-2.8,5.4-4.7,8.2-6c4.5-1.9,10.2-2.9,17.1-2.9c9.8,0,17.2,1.8,22.4,5.7c5.2,3.7,8.7,9.4,10.8,17l-21.5,3.1
		c-0.7-2.9-1.9-5.1-3.7-6.3c-1.8-1.5-4.2-2.2-7.1-2.2c-3.8,0-6.9,1.5-9.2,4.4c-2.3,2.9-3.5,7.6-3.5,13.5c0,5.4,1.2,9.7,3.5,12.6
		c2.3,2.6,5.2,4.1,8.9,4.1c3,0,5.5-1,7.5-2.6c2-1.5,3.6-4.2,4.6-7.6l21.8,2.6C344.8,439.8,342.9,443.9,340.2,447.6z"/>
	<path id="XMLID_302_" class="st0" d="M387.4,430c3.4-1,6.8-2.2,9.8-3.5v4.3c0,2.9-0.5,5.6-1.3,7.6c-1,1.9-2.5,3.4-4.7,4.8
		c-2.2,1.5-4.6,2.2-7.1,2.2c-2.5,0-4.3-0.7-5.6-1.9c-1.2-1.2-1.8-2.9-1.8-5c0-1.6,0.7-3.1,1.8-4.7
		C379.9,432.7,382.8,431.2,387.4,430z M422.5,457.7c-1.2-2.6-2-4.8-2.3-6.6c-0.3-1.8-0.5-4.2-0.5-7.2v-29.2c0-3.2-0.6-6.5-1.7-9.7
		c-1.2-3.4-2.7-6.2-4.6-7.9c-2.7-2.6-6.2-4.5-10.4-5.3c-4.2-1-9.7-1.3-16.5-1.3c-4.2,0-8.3,0.3-11.9,1c-3.7,0.7-6.6,1.8-8.6,2.9
		c-3,1.8-5.2,4-6.8,6.5c-1.5,2.2-2.7,5.6-3.5,9.8l21.9,2.6c0.9-2.9,2.1-4.8,3.5-5.9c1.8-1.5,4.7-1.9,8.4-1.9c2.9,0,5,0.4,6.2,1.6
		c1.2,1.3,1.7,3.5,1.7,6.5c-2.8,1.5-5.5,2.5-8,3.2c-2.6,0.7-8.1,2.2-16.8,3.9c-7.2,1.5-12.1,3.8-14.7,7c-2.6,3.2-4,7.5-4,12.6
		c0,5.1,1.8,9.5,5.5,13.2c3.7,3.8,9.2,5.7,16.2,5.7c5.4,0,10.1-1,14.2-2.9c3-1.3,5.9-3.5,9-6.9c0.2,2.2,0.5,3.4,0.7,4.4
		c0.2,1,0.8,2.2,1.7,3.7H422.5z"/>
	<rect id="XMLID_104_" x="434.3" y="367" class="st0" width="22.9" height="90.7"/>
</g>
</svg>
