<?xml version="1.0" encoding="utf-8"?>
<!-- Generator: Adobe Illustrator 21.0.0, SVG Export Plug-In . SVG Version: 6.00 Build 0)  -->
<svg version="1.1" id="svg-nutr-vb1" xmlns="http://www.w3.org/2000/svg" xmlns:xlink="http://www.w3.org/1999/xlink" x="0px" y="0px"
	 viewBox="0 0 612 792" xml:space="preserve">
<path id="XMLID_494_" class="st0" d="M44.8,758.7c-9.4,3-19.7-3-22.3-12.4c-2.6-9.9,3.2-19.7,12.9-22.5c0.4,0,118.8-27.7,166.2-90.7
	c6-8.1,17.4-9.9,25.3-3.9c7.9,6,9.6,17.4,3.6,25.3C174.8,728.5,45.3,758.7,44.8,758.7L44.8,758.7z M390.6,257.3L390.6,257.3
	c-7.9,0-15.4-1.3-22.7-3.4c6.8,12,10.3,25.5,10.3,38.6c0,20.2-7.7,40.5-22.9,56H355c-15.2,15.2-35,22.9-54.5,23.4
	c6,5.6,11.1,12.5,15.6,20.6l1.1,1.1l0.4,0.9c10.3,18.2,12.2,38.8,7.5,57.3l-0.4,1.7c-5.1,19.3-17.4,36.9-36,47.4l-1.5,1.1
	c-13.5,7.7-28.5,10.7-42.9,9.9c1.7,3.9,2.6,7.3,3.6,11.6c5.8,21,2.4,42-7.5,59.8c-10.3,17.6-27.2,31.1-48.2,36.9
	c-21,5.6-42.5,1.9-59.8-7.9c-17.4-9.9-30.9-27-36.5-48.1c-9.4-35.2,0.4-60.9,10.7-88.1c6.7-17,13.5-35.2,13.9-56h0.2
	c0-6,3.2-11.8,8.6-15.2c9-4.9,19.7-2.4,24.9,6.2c3.9,6,7.7,11.1,12,16.3c-1.1-14.6,0.2-28.5,2.2-42.9c1.5-18.4,3.6-37.5-1.3-57.7
	c-1.3-5.8,0.4-12.2,4.5-16.5c7.1-7.7,18.7-7.7,25.5-0.9c9.6,9,20.6,15.9,31.5,21.4c-12.6-20.6-16.3-41.6-19.5-63.9
	c-3.2-18.4-6.2-37.5-15.9-55.8c-3-5.1-3-11.8,0-17.4c4.5-8.8,15.9-11.8,24.2-7.1c18.2,9.9,37.5,12.9,55.6,15.9h0.2
	c15.9,2.6,31.3,4.9,46.5,11.2c-5.4-10.7-8.1-22.7-8.1-35.4c0-36.3,16.3-58.5,33.3-82.4c11.2-15,22.3-30.7,28.1-50.4
	c2.8-9.4,12.9-15,22.7-12.2c5.8,1.5,10.3,6.4,12.2,12.2c5.6,19.7,17.4,35.6,28.1,50.4l0.9,1.1c16.5,23.4,32.4,45.5,32.4,81.3
	c0,12.6-2.8,24.7-7.9,35.4c15-6.2,30.4-8.6,46.3-11.2c18.2-3,37.8-6,55.8-15.9c8.8-4.7,19.5-1.3,24.2,7.3c3.2,5.6,3.2,12,0,17.6
	c-9.9,18-12.7,36.9-15.9,55.3h0.2c-4.5,28.7-8.8,56-34.5,81.7l-1.1,1.1c-15.2,14.6-35,22.3-54.5,22.3c-20.2,0-40.7-7.9-55.8-23.1
	c-15.4-15.5-23.4-36-23.4-56.2c0-13.1,3.2-26.6,10.1-38.6C406,256,398.1,257.3,390.6,257.3L390.6,257.3z M360.1,208.4L360.1,208.4
	c7.5,7.7,18.4,12.9,30.5,12.9c11.4-0.4,21.7-4.7,29.6-12l0.4-0.9c7.5-7.7,12.5-18.4,12.5-30.2c0-24.2-12.5-41.8-26-60.3l-0.4-0.9
	c-5.4-7.3-11-15-16.1-23.2c-5.1,8.1-10.7,15.9-16.3,23.2c-13.7,18.9-26.2,36.5-26.2,61.1C348.1,190,352.8,200.7,360.1,208.4
	L360.1,208.4L360.1,208.4z M438.8,292.5L438.8,292.5c0,11.2,4.3,22.3,12.7,30.5c8.3,8.4,19.1,12.4,30.4,12.4c10.3,0,21-3.9,29.4-12
	l0.4-0.4c17.4-17.4,20.6-39,24.4-61.8c1.3-9,3.2-18.4,5.1-28.1c-9.4,2.2-18.6,3.6-27.7,5.1c-23.2,3.6-44.8,7.1-62.2,24.2
	C443.1,270.8,438.8,281.8,438.8,292.5L438.8,292.5z M329.4,323L329.4,323c8.4-8.1,12.4-19.3,12.4-30.5c0-10.7-4.1-21.7-12.4-30
	l-0.6-0.4c-17.2-16.9-38.8-20.2-61.3-24v0.2c-9.2-1.5-18.7-3-27.9-5.1c2.2,9.6,3.6,19.1,5.1,27.9c3.2,23,6.9,44.6,24.2,62
	c8.4,8.4,19.3,12.4,30.2,12.4C310.1,335.4,321.1,331.3,329.4,323L329.4,323z M356.5,519.8L356.5,519.8
	c-10.9-19.1-13.1-40.3-7.5-60.1v-0.2c5.1-19.3,17.6-36.7,36.5-47.8c31.3-18,59-15,87.9-12.2c18.9,1.9,37.9,4.1,57.7-0.9
	c9.6-2.3,19.5,3.6,21.9,13.5c1.5,6-0.4,12.2-4.5,16.5c-14.2,14.8-22.1,32.6-29.6,49.5c-11.6,27-23.2,52.3-54.7,70.3
	c-18.7,10.7-40.3,12.9-59.4,7.7l-1.5-0.4C384.1,550.7,367.2,538.1,356.5,519.8L356.5,519.8z M383.7,469.2L383.7,469.2
	c-3,10.3-1.9,22.1,4.1,32.2c6.2,10.1,15,16.9,25.3,19.7l0.7,0.2c10.5,2.8,22.3,1.5,32.6-4.3c21.5-12.2,30-32.4,39.2-53.4
	c3.9-8.4,7.9-17.2,12.6-25.7c-9.9-0.4-19.5-1.3-28.5-2.4c-23-2.4-44.8-4.7-66.3,7.9C393.4,449.1,386.5,458.5,383.7,469.2
	L383.7,469.2z M270.5,469.6L270.5,469.6c10.3-6,16.7-15.4,19.5-25.7l0.2-0.9c2.6-10.3,1.3-21.9-4.7-31.3l-0.2-0.9
	c-12.4-21-32.2-29.6-53.2-39c-8.4-3.6-16.9-7.7-25.7-12.4c-0.4,9.9-1.1,19.5-2.4,28.7c-2.4,22.8-4.3,45,7.5,66.1
	c6,10.3,15.4,17.1,26.2,20.2c10.3,2.6,22.1,1.3,32.2-4.5L270.5,469.6L270.5,469.6z M288.7,500.7L288.7,500.7l-0.4,0.4H288
	L288.7,500.7L288.7,500.7z M253.5,655.2L253.5,655.2c-5.6-20.8-1.9-42.3,8.4-59.8h-0.4c10.3-17.4,26.8-31.1,48.1-36.7
	c35.2-9.4,60.9,0.4,88.1,10.9c17.4,6.9,35.2,13.7,55.8,14.2c10.1,0.2,18.3,8.6,18.3,18.4c-0.4,6.4-3.9,12-9,15
	c-17.8,10.7-30,25.7-41.6,40.3c-18.2,22.7-35.6,44.2-70.6,53.6c-21.2,5.6-42.3,2.2-60-7.9C272.8,693.1,259.1,676.2,253.5,655.2
	L253.5,655.2z M292.8,613.8L292.8,613.8c-5.1,9.4-7.5,20.8-4.3,32.2c3.4,11.4,10.5,20.4,20.2,25.7c9.4,5.6,20.8,7.7,32.4,4.3
	c23.8-6,37.5-23.6,51.9-41.2c6.2-7.3,11.8-14.6,18.6-21.9c-9.4-2.8-18.2-6.4-26.6-9.4c-21.9-8.4-42-16.3-66.1-9.9
	c-11.1,3-20.6,10.5-25.7,20.2l-0.4-0.4V613.8L292.8,613.8z M183,584.8L183,584.8c11.6-2.8,20.6-10.5,25.7-20c5.6-9,7.5-21,4.5-32.4
	c-6.4-23.8-23.4-37.5-41.6-52.1c-7.1-5.6-14.4-11.6-21.7-18.4c-2.6,9.4-6,18.2-9.6,27c-8,21.9-16.1,42-9.7,65.6
	c3,11.6,10.5,20.6,19.9,25.7C160,585.9,171.6,588,183,584.8L183,584.8z"/>
</svg>
