<?xml version="1.0" encoding="utf-8"?>
<!-- Generator: Adobe Illustrator 21.0.0, SVG Export Plug-In . SVG Version: 6.00 Build 0)  -->
<svg version="1.1" id="svg-nutr-protein" xmlns="http://www.w3.org/2000/svg" xmlns:xlink="http://www.w3.org/1999/xlink" x="0px" y="0px"
	 viewBox="0 0 612 792" xml:space="preserve">
<path class="st0" d="M291.1,313.2h28v-85.7l-148.5-85.7L22,227.5v85.7h28v-69.6L170.5,174l120.5,69.6V313.2z"/>
<path class="st0" d="M50,313.2H22V399l148.5,85.7L319.1,399v-85.7h-28v69.6l-120.6,69.6L50,382.8V313.2z"/>
<path class="st0" d="M162.7,198.6c6.5-3.8,14.8-1.5,18.6,5l0,0c3.8,6.5,1.5,14.8-5,18.6l-86.8,50.1c-6.5,3.8-14.8,1.5-18.6-5l0,0
	c-3.8-6.5-1.5-14.8,5-18.6L162.7,198.6z"/>
<path class="st0" d="M562,313.2h28v-85.7l-148.5-85.7l-148.5,85.7v85.7h28v-69.6L441.5,174L562,243.6V313.2z"/>
<path class="st0" d="M320.9,313.2h-28V399l148.5,85.7L590,399v-85.7h-28v69.6l-120.6,69.6l-120.5-69.6V313.2z"/>
<path class="st0" d="M433.7,198.6c6.5-3.8,14.8-1.5,18.6,5l0,0c3.8,6.5,1.5,14.8-5,18.6l-86.8,50.1c-6.5,3.8-14.8,1.5-18.6-5l0,0
	c-3.8-6.5-1.5-14.8,5-18.6L433.7,198.6z"/>
<path class="st0" d="M185,545.2h-28V631l148.5,85.7L454.1,631v-85.7h-28v69.6l-120.6,69.6L185,614.8V545.2z"/>
<path class="st0" d="M426.1,546.4h28v-85.7l-148.5-85.7L157,460.6v85.7h28v-69.6l120.6-69.6l120.5,69.6V546.4z"/>
<path class="st0" d="M297.7,431.8c6.5-3.8,14.8-1.5,18.6,5l0,0c3.8,6.5,1.5,14.8-5,18.6l-86.8,50.1c-6.5,3.8-14.8,1.5-18.6-5l0,0
	c-3.8-6.5-1.5-14.8,5-18.6L297.7,431.8z"/>
</svg>
