<?xml version="1.0" encoding="utf-8"?>
<!-- Generator: Adobe Illustrator 21.0.0, SVG Export Plug-In . SVG Version: 6.00 Build 0)  -->
<svg version="1.1" id="svg-nutr-va" xmlns="http://www.w3.org/2000/svg" xmlns:xlink="http://www.w3.org/1999/xlink" x="0px" y="0px"
	 viewBox="0 0 612 792" xml:space="preserve">
<g>
	<g>
		<defs>
			<rect id="nutr-va@SVGID_1_" x="76.8" y="162.7" width="457.2" height="467.4"/>
		</defs>
		<path clip-path="url(#nutr-va@SVGID_1_)" d="M372.8,243.6c23.9-0.1,46.8,9.3,63.7,26.2c16.9,16.9,26.3,39.8,26.2,63.7c0,28-15.1,55.3-40.3,73L151.7,596.3
			c-11.9,8.4-28.2,7-38.5-3.4c-10.3-10.3-11.7-26.5-3.4-38.5l189.9-270.6C317.5,258.7,344.8,243.6,372.8,243.6 M372.8,215.9
			c-38.3,0-73.7,20.7-95.7,52.1L87.3,538.6c-16.1,22.9-13.4,54.1,6.4,74c19.8,19.8,51,22.5,74,6.4l270.6-189.9
			c31.4-22,52.1-57.4,52.1-95.7c0.1-31.2-12.3-61.2-34.3-83.2C434,228.2,404,215.8,372.8,215.9L372.8,215.9z M372.8,215.9"/>
	</g>
	<path d="M441.4,269c-5.6,0-10.6-3.4-12.8-8.5c-2.1-5.2-1-11.1,3-15.1l49-49c5.4-5.3,14.1-5.2,19.5,0.1c5.4,5.4,5.4,14,0.1,19.5
		l-49,48.9C448.6,267.5,445,269,441.4,269L441.4,269z M441.4,269"/>
	<path d="M519.7,269h-78.3c-7.6,0-13.8-6.2-13.8-13.8c0-7.6,6.2-13.8,13.8-13.8h78.3c7.6,0,13.8,6.2,13.8,13.8
		C533.6,262.8,527.4,269,519.7,269L519.7,269z M519.7,269"/>
	<path d="M441.4,269c-3.7,0-7.2-1.5-9.8-4.1c-2.6-2.6-4.1-6.1-4.1-9.8v-78.3c0-7.6,6.2-13.8,13.8-13.8c7.6,0,13.8,6.2,13.8,13.8
		v78.3c0,3.7-1.4,7.2-4,9.8C448.6,267.5,445,269,441.4,269L441.4,269z M343.4,347.3c-3.7,0-7.2-1.5-9.8-4.1l-49-49
		c-5.3-5.4-5.2-14.1,0.1-19.5c5.4-5.4,14-5.4,19.5-0.1l49,49c4,4,5.1,9.9,3,15.1C354.1,344,349,347.3,343.4,347.3L343.4,347.3z
		 M323.8,484.4c-3.7,0-7.2-1.5-9.8-4.1l-39.2-39.2c-5.3-5.4-5.2-14.1,0.1-19.5s14-5.4,19.5-0.1l39.2,39.2c4,4,5.1,9.9,3,15.1
		C334.5,481.1,329.4,484.4,323.8,484.4L323.8,484.4z M186.7,523.6c-3.7,0-7.2-1.5-9.8-4.1l-29.4-29.4c-5.3-5.4-5.2-14.1,0.1-19.5
		c5.4-5.4,14-5.4,19.5-0.1l29.4,29.4c4,4,5.1,9.9,3,15.1C197.4,520.2,192.3,523.6,186.7,523.6L186.7,523.6z M186.7,523.6"/>
</g>
</svg>
