<?xml version="1.0" encoding="utf-8"?>
<!-- Generator: Adobe Illustrator 21.0.0, SVG Export Plug-In . SVG Version: 6.00 Build 0)  -->
<svg version="1.1" id="svg-nutr-fiber" xmlns="http://www.w3.org/2000/svg" xmlns:xlink="http://www.w3.org/1999/xlink" x="0px" y="0px"
	 viewBox="0 0 612 792" xml:space="preserve">
<g id="XMLID_343_">
	<g id="XMLID_358_">
		<path id="XMLID_109_" class="st0" d="M609.7,472.2c-16,16-37.9,25.1-63.8,26.4c-13.9,23-37.3,35.7-63.7,33.4
			c-34.4-3-63.8-29.3-71.4-64.2c-2.2-9.9,4.1-19.7,14-21.9c9.9-2.2,19.7,4.1,21.9,14c4.7,21.5,23,34.1,38.7,35.5
			c14.4,1.2,25.9-6.6,32.2-22.1c2.9-7.2,10-11.7,17.8-11.4c25.6,1.1,44.9-7.4,55.7-25c13.1-21.1,12.7-52.9-0.8-77.4
			c-6.3-11.3-20.9-30.4-48.3-30.5c-6.9,0-13.2-3.9-16.3-10c-3.1-6.2-2.6-13.5,1.5-19.1c16.2-22.4,15.9-44.2-0.7-58.5
			c-15.6-13.4-42.5-16-63.8,4.9c-5.3,5.2-13.3,6.7-20.1,3.8c-6.9-2.9-11.2-9.7-11.1-17.2c1.2-71.1-53.7-99.8-101-102.9
			c-53.9-3.4-112,25.3-119,86.8c-0.5,5.1-3.3,9.8-7.4,12.8c-4.1,3-9.4,4.2-14.4,3.2c-14.5-2.9-28-0.1-38.3,7.9
			c-8.6,6.6-13.9,16.4-14.5,26.5c-0.5,9.5-8.2,17.1-17.7,17.4c-44.2,1.5-76.5,19.9-90.9,51.9c-13,28.9-8.9,65.1,10,88.1
			c11,13.3,31.2,27.4,65.4,19.4c8.6-2,17.5,2.4,21,10.5c8.3,19,31.5,26.6,48,21.7c20-5.8,28.4-28.2,23.2-61.4
			c-1.6-10,5.3-19.5,15.3-21c10-1.6,19.4,5.3,21,15.3c9.7,62-19,93.5-49.2,102.3c-31.6,9.2-66.1-3.4-84.6-29.3
			c-35.1,4.2-66.8-7.9-88.5-34.2c-27.9-33.9-34-84.7-15.2-126.6c18.4-40.8,57.4-66.7,108.3-72.4c4.4-14.5,13.4-27.5,25.8-37.3
			c14-10.9,31.1-16.6,49.2-16.7c17.5-72.2,88.6-105.8,154.6-101.6c59.7,3.8,119.3,38.5,132.6,107.5c30.9-13,64.1-5.3,85,12.7
			c21,18.1,32.9,49.1,19.9,83.3c21.6,7.2,39.8,22.7,52.1,44.8c20,36.1,20,82.1-0.1,114.5C618.7,462.1,614.4,467.4,609.7,472.2z"/>
	</g>
	<g id="XMLID_356_">
		<path id="XMLID_107_" class="st0" d="M384.1,693.6c-3.3,3.3-7.9,5.4-13,5.4l-138.8,0c-9.8,0-17.9-7.7-18.3-17.5
			c0-0.9-4.6-93.9-20.6-136.8c-3.5-9.5,1.3-20.2,10.8-23.6c9.5-3.5,20.1,1.3,23.6,10.8c13.6,36.4,19.6,99.7,21.8,130.4l105.5,0
			c5.6-39.8,19.5-127.6,35-153.5c5.3-8.6,16.5-11.5,25.2-6.3c8.7,5.2,11.5,16.5,6.3,25.2C411,545.2,396.3,629.1,389.3,683
			C388.8,687.2,386.8,690.9,384.1,693.6z"/>
	</g>
	<g id="XMLID_354_">
		<path id="XMLID_106_" class="st0" d="M493.8,465c-2.7,2.7-6.2,4.6-10.3,5.2c-37.7,5.5-68.6-1.5-91.9-20.9
			c-14.5-12.1-23.5-27.2-29.2-41.2c-18.3,18.2-38.6,29.9-62.5,34.4c-72,13.7-143.3-42.9-146.3-45.3c-7.9-6.4-9.1-17.9-2.8-25.8
			c6.5-7.8,17.9-9.2,25.8-2.9c0.6,0.5,61.3,48.5,116.5,37.8c25.4-4.9,45.6-21.3,62-50c4-7.2,12.4-10.7,20.4-8.8c8,2,13.7,9,14,17.3
			c0,0.3,1.7,36.4,25.9,56.4c14.8,12.3,36,16.5,62.8,12.6c10-1.5,19.3,5.5,20.8,15.5C499.8,455.3,497.7,461.1,493.8,465z"/>
	</g>
	<g id="XMLID_352_">
		<path id="XMLID_105_" class="st0" d="M311.6,693.7c-3.1,3.1-7.3,5.1-12,5.3c-10.1,0.6-18.8-7.2-19.3-17.3
			c-4.8-88.9,18.1-205.1,19.1-210c1.9-10,11.6-16.4,21.6-14.4c9.9,2,16.4,11.6,14.4,21.6c-0.2,1.2-23,116.6-18.5,200.8
			C317.2,685.1,315.2,690.1,311.6,693.7z"/>
	</g>
	<g id="XMLID_350_">
		<path id="XMLID_104_" class="st0" d="M214.8,298.8c-2,2-4.6,3.6-7.5,4.5c-9.7,3-20-2.4-23-12c-0.5-1.7-13.4-43.1-9.2-78.7
			c1.1-10.1,10.3-17.3,20.4-16.1c10.1,1.1,17.3,10.3,16.1,20.4c-3.2,27.7,7.7,63.2,7.8,63.5C221.5,287.1,219.5,294.2,214.8,298.8z"
			/>
	</g>
	<g id="XMLID_348_">
		<path id="XMLID_103_" class="st0" d="M373.8,293.9c-5.3,5.3-11,10-17.1,13.9c-8.5,5.6-19.9,3.2-25.4-5.3
			c-5.6-8.5-3.2-19.8,5.3-25.4c14.1-9.2,25.9-25.2,31.6-42.6c3.1-9.7,13.4-15,23.1-11.8c9.7,3.1,14.9,13.5,11.8,23.1
			C397.2,264,386.9,280.8,373.8,293.9z"/>
	</g>
	<g id="XMLID_346_">
		<path id="XMLID_102_" class="st0" d="M543.8,333.2c-11.8,11.8-24.4,23.3-40,32.1c-8.8,5-20,1.9-25-6.9c-5-8.8-2-20,6.9-25
			c15.2-8.7,28-21.7,41.5-35.7l14.4,11.5l12,14.1C550.3,326.6,547.1,329.9,543.8,333.2z"/>
	</g>
	<g id="XMLID_344_">
		<path id="XMLID_101_" class="st0" d="M84.5,382.3c-2,2-4.6,3.6-7.5,4.5c-9.7,3-20-2.3-23-12c-7.4-23.5,3.2-48.4,25.5-60.6
			c8.9-4.9,20.1-1.6,24.9,7.3c4.8,8.9,1.5,20.1-7.3,24.9c-5.3,2.9-10.6,9.1-8,17.3C91.2,370.6,89.2,377.6,84.5,382.3z"/>
	</g>
</g>
</svg>
