<?xml version="1.0" encoding="utf-8"?>
<!-- Generator: Adobe Illustrator 21.0.0, SVG Export Plug-In . SVG Version: 6.00 Build 0)  -->
<svg version="1.1" id="svg-nutr-fat" xmlns="http://www.w3.org/2000/svg" xmlns:xlink="http://www.w3.org/1999/xlink" x="0px" y="0px"
	 viewBox="0 0 612 792" xml:space="preserve">
<g id="XMLID_748_">
	<g id="XMLID_762_">
		<path id="XMLID_763_" class="st0" d="M498.3,740H115.2c-52.8,0-97.3-42.9-99.1-95.7L1.5,221.4c-0.9-25.8,8.4-50.1,26.2-68.5
			c17.8-18.4,41.8-28.6,67.6-28.6h422.8c25.8,0,49.8,10.2,67.6,28.6c17.8,18.4,27.1,42.7,26.2,68.5l-14.6,422.9
			C595.5,697.1,551.1,740,498.3,740z M95.3,163.7c-15,0-29,5.9-39.3,16.5C45.8,190.9,40.4,205,40.9,220l14.6,422.9
			c1.1,31.8,27.9,57.7,59.7,57.7h383.1c31.8,0,58.6-25.9,59.7-57.7L572.6,220c0.5-15-4.9-29.1-15.1-39.8
			c-10.3-10.7-24.3-16.5-39.3-16.5H95.3z"/>
	</g>
	<g id="XMLID_757_">
		<g id="XMLID_760_">
			<path id="XMLID_282_" class="st0" d="M380.6,383.5c-19.1,0-37.1-7.4-50.6-21c-12.4-12.5-34-12.3-46.3,0c-28,27.9-73.3,28-101.2,0
				c-13.5-13.4-21-31.4-21-50.5c0-19.1,7.4-37.1,20.9-50.6c33.2-33.2,77.4-51.6,124.3-51.6c43.9,0,85.9,16.3,118.2,45.7
				c8,7.4,8.6,19.8,1.3,27.8c-7.3,8.1-19.7,8.7-27.8,1.3c-51.8-47.3-138.2-45.4-188.1,4.6c-6.1,6.1-9.4,14.2-9.4,22.7
				c0,8.6,3.4,16.6,9.4,22.6c12.6,12.5,32.9,12.6,45.4,0c27-27.3,74.8-27.4,102.1,0c12,12.1,33.2,12.1,45.3,0
				c4.2-4.2,7.1-9.4,8.5-15.1c2.5-10.5,13.2-16.9,23.8-14.6c10.6,2.5,17.1,13.2,14.6,23.8c-3.1,12.8-9.6,24.5-19,33.8
				C417.6,376.1,399.7,383.5,380.6,383.5z"/>
		</g>
		<g id="XMLID_758_">
			<path id="XMLID_281_" class="st0" d="M280.5,360c-6.8,0-13.4-3.5-17-9.8l-21.2-36.5c-5.5-9.4-2.3-21.4,7.1-26.9
				c9.5-5.4,21.5-2.2,26.9,7.1l21.2,36.5c5.5,9.4,2.3,21.4-7.1,26.9C287.3,359.2,283.9,360,280.5,360z"/>
		</g>
	</g>
	<g id="XMLID_755_">
		<path id="XMLID_280_" class="st0" d="M522.2,243.1c-7.1,0-13.7-2.8-18.8-7.4c-5.1-5.5-7.9-12.2-7.9-19.3c0-6.7,2.7-13.8,7.9-18.9
			c10.2-9.8,27.9-9.8,37.7,0c5.1,5.1,7.8,11.8,7.8,18.9c0,7.4-2.7,14.1-7.8,18.8C535.9,240.4,529.3,243.1,522.2,243.1z"/>
	</g>
	<g id="XMLID_753_">
		<path id="XMLID_279_" class="st0" d="M507.3,674.3c-7.1,0-13.7-2.8-18.8-7.5c-4.7-5.1-7.8-12.2-7.8-19.3c0-7.1,3.1-13.7,7.8-18.8
			c10.2-9.8,27.9-9.8,37.7,0c5.1,5.1,7.9,12.2,7.9,18.8c0,7.1-2.7,14.2-7.9,18.9C521,671.5,514.4,674.3,507.3,674.3z"/>
	</g>
	<g id="XMLID_751_">
		<path id="XMLID_278_" class="st0" d="M91.1,243.1c-7.1,0-13.7-2.8-18.8-7.4c-5.1-5.5-7.9-12.2-7.9-19.3c0-7.1,2.7-13.8,7.9-18.9
			c10.2-9.8,27.5-9.8,37.7,0c5.1,5.1,7.8,11.8,7.8,18.9c0,7.1-2.7,13.7-7.8,18.8C104.8,240.4,98.2,243.1,91.1,243.1z"/>
	</g>
	<g id="XMLID_749_">
		<path id="XMLID_277_" class="st0" d="M106,674.3c-7.1,0-13.7-2.8-18.8-7.5c-5.1-5.1-7.9-11.8-7.9-19.3c0-6.7,2.8-13.7,7.9-18.8
			c9.8-9.8,27.5-9.8,37.7,0c5.1,5.1,7.9,11.8,7.9,18.8c0,7.1-2.8,14.2-7.9,18.9C119.8,671.5,113.1,674.3,106,674.3z"/>
	</g>
</g>
</svg>
