<?xml version="1.0" encoding="utf-8"?>
<!-- Generator: Adobe Illustrator 21.0.0, SVG Export Plug-In . SVG Version: 6.00 Build 0)  -->
<svg version="1.1" id="svg-pie-analysis" xmlns="http://www.w3.org/2000/svg" xmlns:xlink="http://www.w3.org/1999/xlink" x="0px" y="0px"
	 viewBox="0 0 612 792" xml:space="preserve">
<g>
	<path d="M587.6,412.3H290.1V114.7c0-7.9-6.4-14.3-14.3-14.3h-2.5c-0.1,0-0.1,0-0.2,0C92.9,101.2-53,247.5-53,427.9
		c0,180.9,146.6,327.5,327.5,327.5c180.4,0,326.7-145.9,327.5-326.1c0-0.1,0-0.1,0-0.2v-2.5C602,418.7,595.6,412.3,587.6,412.3
		L587.6,412.3z M274.5,724.2c-163.6,0-296.3-132.7-296.3-296.3c0-158.4,124.3-287.8,280.7-295.9v297.1c0,7.9,6.4,14.3,14.3,14.3
		h297.1C562.3,599.9,432.9,724.2,274.5,724.2L274.5,724.2z M664.3,363.8C663.4,184.3,518.1,39,338.5,38.1c-0.1,0-0.3-0.1-0.4-0.1
		h-2.5c-7.9,0-14.3,6.4-14.3,14.4v314.4c0,7.9,6.4,14.3,14.3,14.3H650c7.9,0,14.3-6.4,14.3-14.3v-2.5
		C664.4,364.1,664.3,364,664.3,363.8L664.3,363.8z M352.5,349.9V70c151.2,7.9,272.1,128.8,279.9,279.9H352.5z M352.5,349.9"/>
</g>
</svg>
