<?xml version="1.0" encoding="utf-8"?>
<!-- Generator: Adobe Illustrator 21.0.0, SVG Export Plug-In . SVG Version: 6.00 Build 0)  -->
<svg version="1.1" id="svg-soup" xmlns="http://www.w3.org/2000/svg" xmlns:xlink="http://www.w3.org/1999/xlink" x="0px" y="0px"
	 viewBox="0 0 612 792" xml:space="preserve">
<defs>
	<rect id="svg-soup@SVGID_1_" x="-1" y="87.3" fill="none" width="613.9" height="692.9"/>
</defs>
<g fill="">
	<path clip-path="url(#svg-soup@SVGID_1_)" d="M369.7,605.7H242.3c-1.3,0-2.7-0.1-4-0.4c-33.3-6.7-65.4-18.8-94.8-35.7c-28.7-16.5-54.3-37.6-75.9-62.7
		C22.7,454.8-1,389.9-1,319.2c0-11,9-20,20-20h574c11,0,20,9,20,20c0,70.7-23.7,135.7-68.6,187.8c-21.6,25-47.3,46.2-75.9,62.7
		c-29.5,16.9-61.5,29-94.8,35.7C372.4,605.5,371,605.7,369.7,605.7L369.7,605.7z M244.4,565.7h123.2c28.4-5.9,55.7-16.3,80.9-30.8
		c24.8-14.2,46.9-32.5,65.6-54.1c34.3-39.8,54.2-88.4,58.2-141.7H39.8c4,53.2,23.9,101.9,58.1,141.7c18.7,21.6,40.8,39.9,65.6,54.1
		C188.7,549.4,216,559.8,244.4,565.7L244.4,565.7z"/>
	<path d="M326.3,681.4"/>
	<path d="M218.2,506.8c-3.1,0-6.1-0.7-8.8-2.1c-66.3-32.7-83-110.2-83.7-113.5c-2.3-10.8,4.7-21.4,15.5-23.7
		c10.8-2.3,21.4,4.7,23.7,15.5c0.2,1.1,13.9,61.9,62.3,85.8c8.3,4.1,12.7,13.4,10.6,22.5C235.6,500.4,227.5,506.8,218.2,506.8
		L218.2,506.8z"/>
	<path d="M239.5,231.7c-3.2-3.5-5.5-7.6-7-12.1c-3.4-10.2-2.1-21.7,3.6-34.3c25.4-55.8-6.9-90.2-8.2-91.6c-7.7-8-20.3-8.2-28.3-0.5
		c-8,7.7-8.2,20.3-0.5,28.3c2.3,3.1,3.9,6.5,5,10.2c3.3,10.9,1.9,23.4-4.4,37.1c-13.2,29-9.5,52.2-4.1,66.5
		c2.8,7.5,6.9,14.6,12,20.8c0.8,1.2,1.8,2.2,2.8,3.2c0.9,0.9,1.6,1.6,1.9,1.9l0.2-0.2c8.3,5.9,19.6,4.6,26.4-2.9
		c6.8-7.5,6.9-18.9,0.3-26.5L239.5,231.7z"/>
	<path d="M332.8,231.7c-3.2-3.5-5.6-7.6-7-12.1c-3.4-10.2-2.1-21.7,3.6-34.3c25.4-55.8-6.9-90.2-8.3-91.6c-7.7-8-20.3-8.2-28.3-0.5
		c-8,7.7-8.2,20.3-0.5,28.3c2.3,3.1,4,6.5,5,10.2c3.3,10.9,1.9,23.4-4.4,37.1c-13.2,29-9.5,52.2-4.1,66.5c2.8,7.5,6.9,14.6,12,20.8
		c0.8,1.2,1.8,2.2,2.8,3.2c0.9,0.9,1.6,1.6,1.9,1.9l0.2-0.2c8.3,5.7,19.4,4.4,26.2-3.1c6.7-7.4,7-18.7,0.5-26.4L332.8,231.7z"/>
	<path d="M420,231.7c-3.2-3.5-5.6-7.6-7-12.1c-3.3-10.2-2.1-21.7,3.6-34.3c25.4-55.8-6.9-90.2-8.2-91.6c-7.7-8-20.3-8.2-28.3-0.5
		c-8,7.7-8.2,20.3-0.5,28.3c2.3,3.1,4,6.5,5,10.2c3.3,10.9,1.9,23.4-4.4,37.1c-13.2,29-9.5,52.2-4.1,66.5c2.8,7.5,6.9,14.6,12,20.8
		c0.8,1.2,1.8,2.2,2.8,3.2c0.9,0.9,1.6,1.6,1.9,1.9l0.2-0.2c8.3,5.9,19.6,4.6,26.4-2.9c6.8-7.5,6.9-18.9,0.3-26.5L420,231.7z"/>
	<path d="M420,231.7"/>

</g>
</svg>
