<?xml version="1.0" encoding="utf-8"?>
<!-- Generator: Adobe Illustrator 21.0.0, SVG Export Plug-In . SVG Version: 6.00 Build 0)  -->
<svg version="1.1" id="svg-supper" xmlns="http://www.w3.org/2000/svg" xmlns:xlink="http://www.w3.org/1999/xlink" x="0px" y="0px"
	 viewBox="0 0 612 792" xml:space="preserve">
<g>
	<g fill="">
		<defs>
			<rect id="svg-supper@SVGID_1_" x="-57" y="62" width="725.9" height="668.9"/>
		</defs>
		<path clip-path="url(#svg-supper@SVGID_1_)" d="M647.6,125.2c11.4,0,20.4-9,20.4-20.4v-7.9c0-11.4-9-20.4-20.4-20.4H399.7c-2.6-7.7-10-13.6-18.2-13.6h-7.9
			c-8.2,0-15.7,5.9-18.2,13.6h-24.7c-2.6-7.7-10-13.6-18.2-13.6h-7.8c-8.2,0-15.7,5.9-18.2,13.6h-28.2c-2.6-7.7-10-13.6-18.2-13.6
			H232c-8.2,0-15.7,5.9-18.2,13.6h-56.6c-11.4,0-20.4,9-20.4,20.4v7.9c0,11.4,9,20.4,20.4,20.4h55.5v30.6h-55.5
			c-11.4,0-20.4,9-20.4,20.4v7.9c0,11.4,9,20.4,20.4,20.4h55.5v146.1c0,1.1,0.2,2.3,0.4,3.4H-13.7c-26.1,0-46.4,22.6-43,48.7
			c22.6,184.6,172.2,327.3,353.4,327.3c181.2,0,330.6-142.7,353.4-327.3c3.4-26.1-15.8-48.7-41.9-48.7H400.4
			c0.2-1.1,0.4-2.2,0.4-3.4V204.5h246.9c11.4,0,20.4-9,20.4-20.4v-7.9c0-11.4-9-20.4-20.4-20.4H400.8v-30.6H647.6z M259.2,125.2
			h26.1v30.6h-26.1V125.2z M259.2,350.6V204.5h26.1v146.1c0,1.1,0.2,2.3,0.4,3.4h-26.5C259.2,352.9,259.3,351.7,259.2,350.6
			L259.2,350.6z M296.6,683.5c-154,0-285.4-121.2-306.9-283.1h613.8C582,562.3,450.6,683.5,296.6,683.5L296.6,683.5z M354.7,353.9
			h-23.4c0.2-1.1,0.4-2.2,0.4-3.4V204.5h22.6v146.1C354.3,351.7,354.4,352.9,354.7,353.9L354.7,353.9z M354.3,155.8h-22.6v-30.6
			h22.6V155.8z M354.3,155.8"/>
	</g>
</g>
</svg>
