<?xml version="1.0" encoding="utf-8"?>
<!-- Generator: Adobe Illustrator 21.0.0, SVG Export Plug-In . SVG Version: 6.00 Build 0)  -->
<svg version="1.1" id="svg-switch" xmlns="http://www.w3.org/2000/svg" xmlns:xlink="http://www.w3.org/1999/xlink" x="0px" y="0px"
	 viewBox="0 0 612 792" xml:space="preserve">
<g>
	<g>
		<defs>
			<rect id="svg-switch@SVGID_1_" x="-53" y="115" width="716.9" height="563.8"/>
		</defs>
		<path clip-path="url(#svg-switch@SVGID_1_)" d="M-27.4,319.5h665.6c0.3,0,0.5-0.2,0.7-0.2c6.6,0.1,12.9-2.5,17.6-7.2c4.7-4.7,7.2-11,7.2-17.6
			c-0.1-0.2,0.1-0.4,0.1-0.7c-0.1-8.6-4.6-16.6-11.9-21.1L501.1,122c-9.6-9.6-25.2-9.6-34.8,0c-9.6,9.6-9.6,25.2,0,34.8l111.5,111.5
			H-27.4c-14.1,0-25.6,11.5-25.6,25.6C-53,308.1-41.5,319.5-27.4,319.5L-27.4,319.5z M638.2,473.1H-27.4c-0.3,0-0.5,0.2-0.7,0.2
			c-6.6-0.1-13,2.5-17.6,7.1c-4.7,4.7-7.2,11-7.2,17.6c0,0.2-0.1,0.4-0.1,0.7c0,9,4.9,16.5,11.9,21.1l150.8,150.8
			c9.6,9.6,25.2,9.6,34.8,0c9.6-9.6,9.6-25.2,0-34.8L33,524.3h605.2c14.1,0,25.6-11.5,25.6-25.6
			C663.8,484.6,652.3,473.1,638.2,473.1L638.2,473.1z M638.2,473.1"/>
	</g>
</g>
</svg>
